<svg xmlns="http://www.w3.org/2000/svg" viewBox="0 0 520 620" role="img" aria-label="Stylized late-night edit bay with a glowing pod and waveform.">
  <defs>
    <radialGradient id="pod" cx="40%" cy="30%" r="70%">
      <stop offset="0" stop-color="#ffd2c0"/>
      <stop offset="0.28" stop-color="#ff6a48"/>
      <stop offset="1" stop-color="#4a1028"/>
    </radialGradient>
    <radialGradient id="glow" cx="50%" cy="42%" r="50%">
      <stop offset="0" stop-color="#ff5a3c" stop-opacity="0.45"/>
      <stop offset="1" stop-color="#ff5a3c" stop-opacity="0"/>
    </radialGradient>
    <linearGradient id="desk" x1="0" y1="0" x2="0" y2="1">
      <stop offset="0" stop-color="#221a2c"/>
      <stop offset="1" stop-color="#0c0a12"/>
    </linearGradient>
  </defs>
  <rect width="520" height="620" fill="#0c0a12"/>
  <circle cx="420" cy="40" r="200" fill="url(#glow)"/>
  <circle cx="40" cy="560" r="180" fill="#d94a8a" opacity="0.16"/>
  <rect x="48" y="70" width="424" height="480" rx="28" fill="url(#desk)" stroke="#f6eee6" stroke-opacity="0.1"/>
  <ellipse cx="260" cy="250" rx="92" ry="124" fill="none" stroke="#ff5a3c" stroke-width="2"/>
  <ellipse cx="260" cy="250" rx="54" ry="74" fill="url(#pod)"/>
  <path d="M214 250h92" stroke="#0c0a12" stroke-width="3" stroke-linecap="round" opacity="0.7"/>
  <g fill="#f6eee6" opacity="0.75">
    <rect x="86" y="430" width="8" height="48" rx="2"/><rect x="102" y="412" width="8" height="66" rx="2"/>
    <rect x="118" y="422" width="8" height="56" rx="2"/><rect x="134" y="400" width="8" height="78" rx="2"/>
    <rect x="150" y="418" width="8" height="60" rx="2"/><rect x="166" y="392" width="8" height="86" rx="2"/>
    <rect x="182" y="414" width="8" height="64" rx="2"/>
  </g>
  <g fill="#ff5a3c">
    <rect x="330" y="414" width="8" height="64" rx="2"/><rect x="346" y="392" width="8" height="86" rx="2"/>
    <rect x="362" y="406" width="8" height="72" rx="2"/><rect x="378" y="388" width="8" height="90" rx="2"/>
    <rect x="394" y="420" width="8" height="58" rx="2"/><rect x="410" y="400" width="8" height="78" rx="2"/>
    <rect x="426" y="428" width="8" height="50" rx="2"/>
  </g>
  <path d="M86 390 H434" stroke="#f6eee6" stroke-opacity="0.15"/>
  <text x="260" y="545" text-anchor="middle" fill="#c9c0b6" font-size="13" font-family="ui-sans-serif, system-ui, sans-serif" letter-spacing="4">EDIT BAY</text>
</svg>
